<?xml version="1.0" encoding="utf-8"?>
<svg id="master-artboard" viewBox="0 0 1400 980" version="1.1" xmlns="http://www.w3.org/2000/svg" x="0px" y="0px" style="enable-background:new 0 0 1400 980;" width="1400px" height="980px"><rect id="ee-background" x="0" y="0" width="1400" height="980" style="fill: white; fill-opacity: 0; pointer-events: none;"/>


<g transform="matrix(1, 0, 0, 1, 32.135353088378906, -73.79219055175781)"><path d="M 634.0661010742188 444 L 632.0961303710938 444 L 628.6361083984375 432.5299987792969 C 628.47607421875 432.0233459472656 628.2927856445312 431.3833312988281 628.0861206054688 430.6099853515625 C 627.8861083984375 429.836669921875 627.7827758789062 429.3699951171875 627.776123046875 429.2099914550781 C 627.602783203125 430.24334716796875 627.3294677734375 431.3733215332031 626.9561157226562 432.6000061035156 L 623.5961303710938 444 L 621.6361083984375 444 L 617.0761108398438 426.8699951171875 L 619.1860961914062 426.8699951171875 L 621.8861083984375 437.45001220703125 C 622.26611328125 438.9366760253906 622.5394287109375 440.2799987792969 622.7061157226562 441.4800109863281 C 622.91943359375 440.0533447265625 623.2327880859375 438.65667724609375 623.6461181640625 437.2900085449219 L 626.7161254882812 426.8699951171875 L 628.8261108398438 426.8699951171875 L 632.0460815429688 437.3800048828125 C 632.4260864257812 438.59332275390625 632.7427978515625 439.9599914550781 632.99609375 441.4800109863281 C 633.1427612304688 440.3733215332031 633.4260864257812 439.0233459472656 633.8461303710938 437.42999267578125 L 636.5361328125 426.8699951171875 L 638.6461181640625 426.8699951171875 L 634.0661010742188 444 ZM 646.4608154296875 444.2300109863281 C 644.5608520507812 444.2300109863281 643.0608520507812 443.6533203125 641.9608154296875 442.5 C 640.8674926757812 441.3466796875 640.32080078125 439.739990234375 640.32080078125 437.67999267578125 C 640.32080078125 435.61334228515625 640.830810546875 433.9700012207031 641.850830078125 432.75 C 642.870849609375 431.5299987792969 644.2374877929688 430.9200134277344 645.9508056640625 430.9200134277344 C 647.5641479492188 430.9200134277344 648.8374633789062 431.45001220703125 649.7708129882812 432.510009765625 C 650.7108154296875 433.57000732421875 651.1808471679688 434.9666748046875 651.1808471679688 436.70001220703125 L 651.1808471679688 437.92999267578125 L 642.330810546875 437.92999267578125 C 642.370849609375 439.4366760253906 642.754150390625 440.5799865722656 643.4808349609375 441.3599853515625 C 644.2008056640625 442.14666748046875 645.2174682617188 442.5400085449219 646.5308227539062 442.5400085449219 C 647.9108276367188 442.5400085449219 649.2774658203125 442.25 650.6307983398438 441.6700134277344 L 650.6307983398438 443.3999938964844 C 649.9441528320312 443.70001220703125 649.294189453125 443.913330078125 648.6808471679688 444.0400085449219 C 648.0675048828125 444.1666564941406 647.3275146484375 444.2300109863281 646.4608154296875 444.2300109863281 M 645.9308471679688 432.54998779296875 C 644.8975219726562 432.54998779296875 644.0741577148438 432.88665771484375 643.4608154296875 433.55999755859375 C 642.8474731445312 434.23333740234375 642.4874877929688 435.163330078125 642.3807983398438 436.3500061035156 L 649.100830078125 436.3500061035156 C 649.100830078125 435.1233215332031 648.8241577148438 434.1833190917969 648.2708129882812 433.5299987792969 C 647.7241821289062 432.8766784667969 646.9441528320312 432.54998779296875 645.9308471679688 432.54998779296875 ZM 656.4486694335938 444 L 654.4986572265625 444 L 654.4986572265625 425.7699890136719 L 656.4486694335938 425.7699890136719 L 656.4486694335938 444 ZM 662.515869140625 444 L 660.5658569335938 444 L 660.5658569335938 425.7699890136719 L 662.515869140625 425.7699890136719 L 662.515869140625 444 ZM 675.4273681640625 444 L 675.4273681640625 435.69000244140625 C 675.4273681640625 434.6433410644531 675.1907348632812 433.86334228515625 674.7174072265625 433.3500061035156 C 674.2373657226562 432.8299865722656 673.49072265625 432.57000732421875 672.4774169921875 432.57000732421875 C 671.1307373046875 432.57000732421875 670.1473999023438 432.9333190917969 669.5274047851562 433.6600036621094 C 668.9006958007812 434.38665771484375 668.58740234375 435.586669921875 668.58740234375 437.260009765625 L 668.58740234375 444 L 666.6373901367188 444 L 666.6373901367188 431.1600036621094 L 668.2174072265625 431.1600036621094 L 668.5374145507812 432.9100036621094 L 668.6273803710938 432.9100036621094 C 669.0274047851562 432.27667236328125 669.58740234375 431.78668212890625 670.307373046875 431.44000244140625 C 671.0274047851562 431.09332275390625 671.827392578125 430.9200134277344 672.7073974609375 430.9200134277344 C 674.2540283203125 430.9200134277344 675.4207153320312 431.2933349609375 676.2073974609375 432.0400085449219 C 676.9873657226562 432.78668212890625 677.3773803710938 433.9800109863281 677.3773803710938 435.6199951171875 L 677.3773803710938 444 L 675.4273681640625 444 ZM 686.7994995117188 444.2300109863281 C 684.8995361328125 444.2300109863281 683.3995361328125 443.6533203125 682.2994995117188 442.5 C 681.2061767578125 441.3466796875 680.6594848632812 439.739990234375 680.6594848632812 437.67999267578125 C 680.6594848632812 435.61334228515625 681.1694946289062 433.9700012207031 682.1895141601562 432.75 C 683.2095336914062 431.5299987792969 684.576171875 430.9200134277344 686.2894897460938 430.9200134277344 C 687.90283203125 430.9200134277344 689.1761474609375 431.45001220703125 690.1094970703125 432.510009765625 C 691.0494995117188 433.57000732421875 691.51953125 434.9666748046875 691.51953125 436.70001220703125 L 691.51953125 437.92999267578125 L 682.6694946289062 437.92999267578125 C 682.7095336914062 439.4366760253906 683.0928344726562 440.5799865722656 683.8195190429688 441.3599853515625 C 684.5394897460938 442.14666748046875 685.55615234375 442.5400085449219 686.8695068359375 442.5400085449219 C 688.24951171875 442.5400085449219 689.6161499023438 442.25 690.969482421875 441.6700134277344 L 690.969482421875 443.3999938964844 C 690.2828369140625 443.70001220703125 689.6328125 443.913330078125 689.01953125 444.0400085449219 C 688.4061889648438 444.1666564941406 687.6661987304688 444.2300109863281 686.7994995117188 444.2300109863281 M 686.26953125 432.54998779296875 C 685.2362060546875 432.54998779296875 684.412841796875 432.88665771484375 683.7994995117188 433.55999755859375 C 683.1861572265625 434.23333740234375 682.826171875 435.163330078125 682.719482421875 436.3500061035156 L 689.4395141601562 436.3500061035156 C 689.4395141601562 435.1233215332031 689.162841796875 434.1833190917969 688.6094970703125 433.5299987792969 C 688.0628662109375 432.8766784667969 687.2828369140625 432.54998779296875 686.26953125 432.54998779296875 ZM 703.1229858398438 440.5 C 703.1229858398438 441.6933288574219 702.6763305664062 442.61334228515625 701.7830200195312 443.260009765625 C 700.8963623046875 443.90667724609375 699.6463623046875 444.2300109863281 698.0330200195312 444.2300109863281 C 696.3330078125 444.2300109863281 695.00634765625 443.9633483886719 694.0530395507812 443.42999267578125 L 694.0530395507812 441.6199951171875 C 694.6663208007812 441.9333190917969 695.3263549804688 442.17999267578125 696.0330200195312 442.3599853515625 C 696.7396850585938 442.5400085449219 697.4230346679688 442.6300048828125 698.0830078125 442.6300048828125 C 699.0963134765625 442.6300048828125 699.8763427734375 442.4666748046875 700.4230346679688 442.1400146484375 C 700.9696655273438 441.82000732421875 701.2429809570312 441.32666015625 701.2429809570312 440.6600036621094 C 701.2429809570312 440.1600036621094 701.0263671875 439.73333740234375 700.593017578125 439.3800048828125 C 700.15966796875 439.0199890136719 699.3163452148438 438.6000061035156 698.06298828125 438.1199951171875 C 696.863037109375 437.67333984375 696.0130004882812 437.2833251953125 695.5130004882812 436.95001220703125 C 695.00634765625 436.6166687011719 694.6296997070312 436.239990234375 694.3829956054688 435.82000732421875 C 694.1363525390625 435.3999938964844 694.0130004882812 434.89666748046875 694.0130004882812 434.30999755859375 C 694.0130004882812 433.2633361816406 694.439697265625 432.4366760253906 695.2930297851562 431.8299865722656 C 696.1463623046875 431.22332763671875 697.31298828125 430.9200134277344 698.7930297851562 430.9200134277344 C 700.1796875 430.9200134277344 701.5330200195312 431.2033386230469 702.85302734375 431.7699890136719 L 702.1630249023438 433.3500061035156 C 700.8696899414062 432.8166809082031 699.69970703125 432.54998779296875 698.6530151367188 432.54998779296875 C 697.7330322265625 432.54998779296875 697.0396728515625 432.6933288574219 696.572998046875 432.9800109863281 C 696.0996704101562 433.2733459472656 695.863037109375 433.67333984375 695.863037109375 434.17999267578125 C 695.863037109375 434.52667236328125 695.9530029296875 434.82000732421875 696.1329956054688 435.05999755859375 C 696.3063354492188 435.29998779296875 696.5896606445312 435.5299987792969 696.9830322265625 435.75 C 697.3696899414062 435.9700012207031 698.1196899414062 436.28668212890625 699.2330322265625 436.70001220703125 C 700.7529907226562 437.2533264160156 701.7796630859375 437.80999755859375 702.31298828125 438.3699951171875 C 702.85302734375 438.9366760253906 703.1229858398438 439.64666748046875 703.1229858398438 440.5 ZM 714.5712890625 440.5 C 714.5712890625 441.6933288574219 714.1246337890625 442.61334228515625 713.2313232421875 443.260009765625 C 712.3446655273438 443.90667724609375 711.0946655273438 444.2300109863281 709.4813232421875 444.2300109863281 C 707.7813110351562 444.2300109863281 706.4546508789062 443.9633483886719 705.5013427734375 443.42999267578125 L 705.5013427734375 441.6199951171875 C 706.1146240234375 441.9333190917969 706.774658203125 442.17999267578125 707.4813232421875 442.3599853515625 C 708.18798828125 442.5400085449219 708.871337890625 442.6300048828125 709.5313110351562 442.6300048828125 C 710.5446166992188 442.6300048828125 711.3246459960938 442.4666748046875 711.871337890625 442.1400146484375 C 712.41796875 441.82000732421875 712.6912841796875 441.32666015625 712.6912841796875 440.6600036621094 C 712.6912841796875 440.1600036621094 712.4746704101562 439.73333740234375 712.0413208007812 439.3800048828125 C 711.6079711914062 439.0199890136719 710.7646484375 438.6000061035156 709.5112915039062 438.1199951171875 C 708.3113403320312 437.67333984375 707.4613037109375 437.2833251953125 706.9613037109375 436.95001220703125 C 706.4546508789062 436.6166687011719 706.0780029296875 436.239990234375 705.831298828125 435.82000732421875 C 705.5846557617188 435.3999938964844 705.4613037109375 434.89666748046875 705.4613037109375 434.30999755859375 C 705.4613037109375 433.2633361816406 705.8880004882812 432.4366760253906 706.7413330078125 431.8299865722656 C 707.5946655273438 431.22332763671875 708.7612915039062 430.9200134277344 710.2413330078125 430.9200134277344 C 711.6279907226562 430.9200134277344 712.9813232421875 431.2033386230469 714.3013305664062 431.7699890136719 L 713.611328125 433.3500061035156 C 712.3179931640625 432.8166809082031 711.1480102539062 432.54998779296875 710.101318359375 432.54998779296875 C 709.1813354492188 432.54998779296875 708.4879760742188 432.6933288574219 708.0213012695312 432.9800109863281 C 707.5479736328125 433.2733459472656 707.3113403320312 433.67333984375 707.3113403320312 434.17999267578125 C 707.3113403320312 434.52667236328125 707.4013061523438 434.82000732421875 707.581298828125 435.05999755859375 C 707.754638671875 435.29998779296875 708.0379638671875 435.5299987792969 708.4313354492188 435.75 C 708.8179931640625 435.9700012207031 709.5679931640625 436.28668212890625 710.6813354492188 436.70001220703125 C 712.2012939453125 437.2533264160156 713.2279663085938 437.80999755859375 713.7612915039062 438.3699951171875 C 714.3013305664062 438.9366760253906 714.5712890625 439.64666748046875 714.5712890625 440.5 ZM 726.2550659179688 444 L 724.2650756835938 444 L 724.2650756835938 426.8699951171875 L 733.8150634765625 426.8699951171875 L 733.8150634765625 428.6400146484375 L 726.2550659179688 428.6400146484375 L 726.2550659179688 434.9100036621094 L 733.3551025390625 434.9100036621094 L 733.3551025390625 436.67999267578125 L 726.2550659179688 436.67999267578125 L 726.2550659179688 444 ZM 747.4397583007812 437.57000732421875 C 747.4397583007812 439.663330078125 746.9130859375 441.2966613769531 745.8597412109375 442.4700012207031 C 744.7997436523438 443.6433410644531 743.3430786132812 444.2300109863281 741.48974609375 444.2300109863281 C 740.33642578125 444.2300109863281 739.31640625 443.9633483886719 738.4297485351562 443.42999267578125 C 737.536376953125 442.8900146484375 736.8463745117188 442.1166687011719 736.3597412109375 441.1099853515625 C 735.8797607421875 440.0966796875 735.6397094726562 438.9166564941406 735.6397094726562 437.57000732421875 C 735.6397094726562 435.4766540527344 736.1630859375 433.84332275390625 737.209716796875 432.6700134277344 C 738.2564086914062 431.5033264160156 739.709716796875 430.9200134277344 741.5697631835938 430.9200134277344 C 743.363037109375 430.9200134277344 744.7897338867188 431.51666259765625 745.8497314453125 432.7099914550781 C 746.9097290039062 433.9100036621094 747.4397583007812 435.5299987792969 747.4397583007812 437.57000732421875 M 737.6497192382812 437.57000732421875 C 737.6497192382812 439.2099914550781 737.979736328125 440.4599914550781 738.6397094726562 441.32000732421875 C 739.2930908203125 442.17999267578125 740.2564086914062 442.6099853515625 741.5297241210938 442.6099853515625 C 742.8030395507812 442.6099853515625 743.7697143554688 442.17999267578125 744.4297485351562 441.32000732421875 C 745.0897216796875 440.4666748046875 745.4197387695312 439.2166748046875 745.4197387695312 437.57000732421875 C 745.4197387695312 435.9366760253906 745.0897216796875 434.6966552734375 744.4297485351562 433.8500061035156 C 743.7697143554688 432.9966735839844 742.79638671875 432.57000732421875 741.5097045898438 432.57000732421875 C 740.2363891601562 432.57000732421875 739.2764282226562 432.989990234375 738.6297607421875 433.8299865722656 C 737.9763793945312 434.663330078125 737.6497192382812 435.9100036621094 737.6497192382812 437.57000732421875 ZM 756.7045288085938 430.9200134277344 C 757.2778930664062 430.9200134277344 757.7911987304688 430.9666748046875 758.2445678710938 431.05999755859375 L 757.9745483398438 432.8699951171875 C 757.4412231445312 432.75 756.97119140625 432.69000244140625 756.5645751953125 432.69000244140625 C 755.5245361328125 432.69000244140625 754.6378784179688 433.11334228515625 753.904541015625 433.9599914550781 C 753.16455078125 434.79998779296875 752.7945556640625 435.8500061035156 752.7945556640625 437.1099853515625 L 752.7945556640625 444 L 750.8445434570312 444 L 750.8445434570312 431.1600036621094 L 752.4545288085938 431.1600036621094 L 752.674560546875 433.5400085449219 L 752.7645263671875 433.5400085449219 C 753.2445678710938 432.70001220703125 753.8212280273438 432.0533447265625 754.4945678710938 431.6000061035156 C 755.1611938476562 431.14666748046875 755.8978881835938 430.9200134277344 756.7045288085938 430.9200134277344 ZM 766.0744018554688 444.2300109863281 C 764.1744384765625 444.2300109863281 762.6744384765625 443.6533203125 761.5744018554688 442.5 C 760.4810791015625 441.3466796875 759.9343872070312 439.739990234375 759.9343872070312 437.67999267578125 C 759.9343872070312 435.61334228515625 760.4443969726562 433.9700012207031 761.4644165039062 432.75 C 762.4844360351562 431.5299987792969 763.85107421875 430.9200134277344 765.5643920898438 430.9200134277344 C 767.177734375 430.9200134277344 768.4510498046875 431.45001220703125 769.3843994140625 432.510009765625 C 770.3244018554688 433.57000732421875 770.79443359375 434.9666748046875 770.79443359375 436.70001220703125 L 770.79443359375 437.92999267578125 L 761.9443969726562 437.92999267578125 C 761.9844360351562 439.4366760253906 762.3677368164062 440.5799865722656 763.0944213867188 441.3599853515625 C 763.8143920898438 442.14666748046875 764.8310546875 442.5400085449219 766.1444091796875 442.5400085449219 C 767.5244140625 442.5400085449219 768.8910522460938 442.25 770.244384765625 441.6700134277344 L 770.244384765625 443.3999938964844 C 769.5577392578125 443.70001220703125 768.90771484375 443.913330078125 768.29443359375 444.0400085449219 C 767.6810913085938 444.1666564941406 766.9411010742188 444.2300109863281 766.0744018554688 444.2300109863281 M 765.54443359375 432.54998779296875 C 764.5111083984375 432.54998779296875 763.687744140625 432.88665771484375 763.0744018554688 433.55999755859375 C 762.4610595703125 434.23333740234375 762.10107421875 435.163330078125 761.994384765625 436.3500061035156 L 768.7144165039062 436.3500061035156 C 768.7144165039062 435.1233215332031 768.437744140625 434.1833190917969 767.8843994140625 433.5299987792969 C 767.3377685546875 432.8766784667969 766.5577392578125 432.54998779296875 765.54443359375 432.54998779296875 ZM 776.9279174804688 444 L 772.0479125976562 431.1600036621094 L 774.137939453125 431.1600036621094 L 776.8978881835938 438.7699890136719 C 777.5245971679688 440.5566711425781 777.8912353515625 441.7133483886719 777.9979248046875 442.239990234375 L 778.097900390625 442.239990234375 C 778.1845703125 441.82666015625 778.45458984375 440.9700012207031 778.9078979492188 439.6700134277344 C 779.367919921875 438.3699951171875 780.3945922851562 435.5333251953125 781.9879150390625 431.1600036621094 L 784.0679321289062 431.1600036621094 L 779.1979370117188 444 L 776.9279174804688 444 ZM 791.5601196289062 444.2300109863281 C 789.66015625 444.2300109863281 788.16015625 443.6533203125 787.0601196289062 442.5 C 785.966796875 441.3466796875 785.4201049804688 439.739990234375 785.4201049804688 437.67999267578125 C 785.4201049804688 435.61334228515625 785.9301147460938 433.9700012207031 786.9501342773438 432.75 C 787.9701538085938 431.5299987792969 789.3367919921875 430.9200134277344 791.0501098632812 430.9200134277344 C 792.6634521484375 430.9200134277344 793.936767578125 431.45001220703125 794.8701171875 432.510009765625 C 795.8101196289062 433.57000732421875 796.2801513671875 434.9666748046875 796.2801513671875 436.70001220703125 L 796.2801513671875 437.92999267578125 L 787.4301147460938 437.92999267578125 C 787.4701538085938 439.4366760253906 787.8534545898438 440.5799865722656 788.5801391601562 441.3599853515625 C 789.3001098632812 442.14666748046875 790.3167724609375 442.5400085449219 791.630126953125 442.5400085449219 C 793.0101318359375 442.5400085449219 794.3767700195312 442.25 795.7301025390625 441.6700134277344 L 795.7301025390625 443.3999938964844 C 795.04345703125 443.70001220703125 794.3934326171875 443.913330078125 793.7801513671875 444.0400085449219 C 793.1668090820312 444.1666564941406 792.4268188476562 444.2300109863281 791.5601196289062 444.2300109863281 M 791.0301513671875 432.54998779296875 C 789.996826171875 432.54998779296875 789.1734619140625 432.88665771484375 788.5601196289062 433.55999755859375 C 787.94677734375 434.23333740234375 787.5867919921875 435.163330078125 787.4801025390625 436.3500061035156 L 794.2001342773438 436.3500061035156 C 794.2001342773438 435.1233215332031 793.9234619140625 434.1833190917969 793.3701171875 433.5299987792969 C 792.823486328125 432.8766784667969 792.04345703125 432.54998779296875 791.0301513671875 432.54998779296875 ZM 805.45361328125 430.9200134277344 C 806.0269775390625 430.9200134277344 806.540283203125 430.9666748046875 806.99365234375 431.05999755859375 L 806.7236328125 432.8699951171875 C 806.1903076171875 432.75 805.7202758789062 432.69000244140625 805.3136596679688 432.69000244140625 C 804.2736206054688 432.69000244140625 803.386962890625 433.11334228515625 802.6536254882812 433.9599914550781 C 801.9136352539062 434.79998779296875 801.5436401367188 435.8500061035156 801.5436401367188 437.1099853515625 L 801.5436401367188 444 L 799.5936279296875 444 L 799.5936279296875 431.1600036621094 L 801.20361328125 431.1600036621094 L 801.4236450195312 433.5400085449219 L 801.5136108398438 433.5400085449219 C 801.99365234375 432.70001220703125 802.5703125 432.0533447265625 803.24365234375 431.6000061035156 C 803.9102783203125 431.14666748046875 804.64697265625 430.9200134277344 805.45361328125 430.9200134277344 Z" transform="matrix(4.035221099853516, 0, 0, 4.567506790161133, -1961.6376953125, -1448.7493896484375)" style="fill: rgb(145, 255, 209); white-space: pre; color: rgb(51, 51, 51);"/><g transform="matrix(1.5507854223251343, 0, 0, 1.5507854223251343, -965.7544555664062, -113.68397521972656)"><g transform="matrix(1, 0, 0, 1, -2.1869571208953857, 5.4673943519592285)">
			<g>
				<path class="st0" d="M883.1,343.7H811v-15.5c0-9.8,8-17.8,17.8-17.8h36.5c9.8,0,17.8,8,17.8,17.8V343.7z M818.7,336h56.7v-7.8&#10;&#9;&#9;&#9;&#9;&#9;c0-5.6-4.5-10.1-10.1-10.1h-36.5c-5.6,0-10.1,4.5-10.1,10.1V336z" style="fill: rgb(51, 51, 51); opacity: 1;"/>
			</g>
			<path d="M 855.9000244140625 395.20001220703125 L 855.9000244140625 383.8999938964844 L 847.5999755859375 383.8999938964844 L 839.4000244140625 383.8999938964844 L 839.4000244140625 395.20001220703125 L 828.0999755859375 395.20001220703125 L 828.0999755859375 411.70001220703125 L 839.4000244140625 411.70001220703125 L 839.4000244140625 423 L 847.5999755859375 423 L 855.9000244140625 423 L 855.9000244140625 411.70001220703125 L 867.2000122070312 411.70001220703125 L 867.2000122070312 395.20001220703125 Z" class="st0" style="fill: rgb(51, 51, 51); opacity: 1;"/>
			<path class="st0" d="M914.2,329.8h-10c-2,0-3.6,1.6-3.6,3.6v1.7h17.3v-1.7C917.8,331.4,916.2,329.8,914.2,329.8z" style="fill: rgb(51, 51, 51); opacity: 1;"/>
			<path class="st0" d="M790.5,329.8h-10c-2,0-3.6,1.6-3.6,3.6v1.7h17.3v-1.7C794.2,331.4,792.5,329.8,790.5,329.8z" style="fill: rgb(51, 51, 51); opacity: 1;"/>
			<path class="st0" d="M815.3,399.4v-21.1c0-4,3.3-7.3,7.3-7.3h24.8h25.4c0.8,0,1.5,0.1,2.2,0.3c0.2,0.1,0.5,0.2,0.7,0.2&#10;&#9;&#9;&#9;&#9;c0.4,0.2,0.8,0.4,1.2,0.7c0.4,0.3,0.7,0.6,1.1,0.9c1.3,1.3,2.1,3.1,2.1,5.1v0v21.1h58.2v-57c0-4-3.3-7.3-7.3-7.3H763.7&#10;&#9;&#9;&#9;&#9;c-4,0-7.3,3.3-7.3,7.3v57H815.3z" style="fill: rgb(145, 255, 209); opacity: 1;"/>
			<path class="st0" d="M880,407.5v21.1v0c0,4-3.3,7.3-7.3,7.3h-50.2c-4,0-7.3-3.3-7.3-7.3v-21.1h-58.8v57c0,4,3.3,7.3,7.3,7.3&#10;&#9;&#9;&#9;&#9;h167.2c4,0,7.3-3.3,7.3-7.3v-57H880z M923,456.6c-2.9,2.9-7.5,2.9-10.4,0c-2.9-2.9-2.9-7.5,0-10.4c2.9-2.9,7.5-2.9,10.4,0&#10;&#9;&#9;&#9;&#9;C925.9,449.1,925.9,453.7,923,456.6z" style="fill: rgb(145, 255, 209); opacity: 1;"/>
		<path d="M 799.3073120117188 444.0557861328125 L 797.7723388671875 444.8232727050781" style="fill: rgb(145, 255, 209); fill-opacity: 1; stroke: rgb(0, 0, 0); stroke-opacity: 1; stroke-width: 0; paint-order: fill;"/><path d="M 734.8389282226562 496.24444580078125" style="fill: rgb(145, 255, 209); fill-opacity: 1; stroke: rgb(0, 0, 0); stroke-opacity: 1; stroke-width: 0; paint-order: fill;"/><path d="M 786.2601318359375 438.6834411621094" style="fill: rgb(145, 255, 209); fill-opacity: 1; stroke: rgb(0, 0, 0); stroke-opacity: 1; stroke-width: 0; paint-order: fill;"/></g></g></g></svg>