<?xml version="1.0" encoding="utf-8"?>
<svg id="master-artboard" viewBox="0 0 1400 980" version="1.1" xmlns="http://www.w3.org/2000/svg" x="0px" y="0px" style="enable-background:new 0 0 1400 980;" width="1400px" height="980px"><rect id="ee-background" x="0" y="0" width="1400" height="980" style="fill: white; fill-opacity: 0; pointer-events: none;"/>


<g transform="matrix(1, 0, 0, 1, 32.135353088378906, -73.79219055175781)"><g transform="matrix(1.5507854223251343, 0, 0, 1.5507854223251343, -965.7544555664062, -113.68397521972656)"><g transform="matrix(1, 0, 0, 1, -2.1869571208953857, 5.4673943519592285)">
			<g>
				<path class="st0" d="M883.1,343.7H811v-15.5c0-9.8,8-17.8,17.8-17.8h36.5c9.8,0,17.8,8,17.8,17.8V343.7z M818.7,336h56.7v-7.8&#10;&#9;&#9;&#9;&#9;&#9;c0-5.6-4.5-10.1-10.1-10.1h-36.5c-5.6,0-10.1,4.5-10.1,10.1V336z" style="fill: rgb(51, 51, 51); opacity: 1;"/>
			</g>
			<path d="M 855.9000244140625 395.20001220703125 L 855.9000244140625 383.8999938964844 L 847.5999755859375 383.8999938964844 L 839.4000244140625 383.8999938964844 L 839.4000244140625 395.20001220703125 L 828.0999755859375 395.20001220703125 L 828.0999755859375 411.70001220703125 L 839.4000244140625 411.70001220703125 L 839.4000244140625 423 L 847.5999755859375 423 L 855.9000244140625 423 L 855.9000244140625 411.70001220703125 L 867.2000122070312 411.70001220703125 L 867.2000122070312 395.20001220703125 Z" class="st0" style="fill: rgb(51, 51, 51); opacity: 1;"/>
			<path class="st0" d="M914.2,329.8h-10c-2,0-3.6,1.6-3.6,3.6v1.7h17.3v-1.7C917.8,331.4,916.2,329.8,914.2,329.8z" style="fill: rgb(51, 51, 51); opacity: 1;"/>
			<path class="st0" d="M790.5,329.8h-10c-2,0-3.6,1.6-3.6,3.6v1.7h17.3v-1.7C794.2,331.4,792.5,329.8,790.5,329.8z" style="fill: rgb(51, 51, 51); opacity: 1;"/>
			<path class="st0" d="M815.3,399.4v-21.1c0-4,3.3-7.3,7.3-7.3h24.8h25.4c0.8,0,1.5,0.1,2.2,0.3c0.2,0.1,0.5,0.2,0.7,0.2&#10;&#9;&#9;&#9;&#9;c0.4,0.2,0.8,0.4,1.2,0.7c0.4,0.3,0.7,0.6,1.1,0.9c1.3,1.3,2.1,3.1,2.1,5.1v0v21.1h58.2v-57c0-4-3.3-7.3-7.3-7.3H763.7&#10;&#9;&#9;&#9;&#9;c-4,0-7.3,3.3-7.3,7.3v57H815.3z" style="fill: rgb(145, 255, 209); opacity: 1;"/>
			<path class="st0" d="M880,407.5v21.1v0c0,4-3.3,7.3-7.3,7.3h-50.2c-4,0-7.3-3.3-7.3-7.3v-21.1h-58.8v57c0,4,3.3,7.3,7.3,7.3&#10;&#9;&#9;&#9;&#9;h167.2c4,0,7.3-3.3,7.3-7.3v-57H880z M923,456.6c-2.9,2.9-7.5,2.9-10.4,0c-2.9-2.9-2.9-7.5,0-10.4c2.9-2.9,7.5-2.9,10.4,0&#10;&#9;&#9;&#9;&#9;C925.9,449.1,925.9,453.7,923,456.6z" style="fill: rgb(145, 255, 209); opacity: 1;"/>
		<path d="M 799.3073120117188 444.0557861328125 L 797.7723388671875 444.8232727050781" style="fill: rgb(145, 255, 209); fill-opacity: 1; stroke: rgb(0, 0, 0); stroke-opacity: 1; stroke-width: 0; paint-order: fill;"/><path d="M 734.8389282226562 496.24444580078125" style="fill: rgb(145, 255, 209); fill-opacity: 1; stroke: rgb(0, 0, 0); stroke-opacity: 1; stroke-width: 0; paint-order: fill;"/><path d="M 786.2601318359375 438.6834411621094" style="fill: rgb(145, 255, 209); fill-opacity: 1; stroke: rgb(0, 0, 0); stroke-opacity: 1; stroke-width: 0; paint-order: fill;"/></g></g></g></svg>